<svg width="54" height="78" viewBox="0 0 54 78" fill="none" xmlns="http://www.w3.org/2000/svg">
<g filter="url(#filter0_d_370_608)">
<path d="M9.5 67L43.5 5" stroke="white" stroke-width="6" stroke-linecap="round" stroke-linejoin="round"/>
<path d="M19.3573 19.6183C18.078 23.4371 16.1387 26.4757 14.1825 28.3321C12.118 30.2913 10.6706 30.4185 10.0128 30.1981C9.35489 29.9777 8.27621 29.0043 7.80847 26.1969C7.36525 23.5367 7.6477 19.943 8.92693 16.1243C10.2062 12.3056 12.1454 9.26696 14.1017 7.4105C16.1662 5.45138 17.6135 5.3242 18.2714 5.54458C18.9293 5.76496 20.008 6.73834 20.4757 9.54572C20.9189 12.206 20.6365 15.7996 19.3573 19.6183Z" stroke="white" stroke-width="6"/>
<path d="M45.3573 54.6183C44.078 58.4371 42.1387 61.4757 40.1825 63.3321C38.118 65.2913 36.6706 65.4185 36.0128 65.1981C35.3549 64.9777 34.2762 64.0043 33.8085 61.1969C33.3652 58.5367 33.6477 54.943 34.9269 51.1243C36.2062 47.3056 38.1454 44.267 40.1017 42.4105C42.1662 40.4514 43.6135 40.3242 44.2714 40.5446C44.9293 40.765 46.008 41.7383 46.4757 44.5457C46.9189 47.206 46.6365 50.7996 45.3573 54.6183Z" stroke="white" stroke-width="6"/>
</g>
<defs>
<filter id="filter0_d_370_608" x="0.612549" y="1.99939" width="53.0591" height="76.0012" filterUnits="userSpaceOnUse" color-interpolation-filters="sRGB">
<feFlood flood-opacity="0" result="BackgroundImageFix"/>
<feColorMatrix in="SourceAlpha" type="matrix" values="0 0 0 0 0 0 0 0 0 0 0 0 0 0 0 0 0 0 127 0" result="hardAlpha"/>
<feOffset dy="4"/>
<feGaussianBlur stdDeviation="2"/>
<feColorMatrix type="matrix" values="0 0 0 0 0 0 0 0 0 0 0 0 0 0 0 0 0 0 0.6 0"/>
<feBlend mode="normal" in2="BackgroundImageFix" result="effect1_dropShadow_370_608"/>
<feBlend mode="normal" in="SourceGraphic" in2="effect1_dropShadow_370_608" result="shape"/>
</filter>
</defs>
</svg>
